<?xml version="1.0" encoding="UTF-8" standalone="no"?>
<!-- Created with Inkscape (http://www.inkscape.org/) -->

<svg
   xmlns:dc="http://purl.org/dc/elements/1.1/"
   xmlns:cc="http://creativecommons.org/ns#"
   xmlns:rdf="http://www.w3.org/1999/02/22-rdf-syntax-ns#"
   xmlns:svg="http://www.w3.org/2000/svg"
   xmlns="http://www.w3.org/2000/svg"
   xmlns:sodipodi="http://sodipodi.sourceforge.net/DTD/sodipodi-0.dtd"
   xmlns:inkscape="http://www.inkscape.org/namespaces/inkscape"
   width="540"
   height="540"
   id="svg2"
   version="1.1"
   inkscape:version="0.48.5 r10040"
   sodipodi:docname="cartamoc.svg">
  <defs
     id="defs4" />
  <sodipodi:namedview
     id="base"
     pagecolor="#ffffff"
     bordercolor="#666666"
     borderopacity="1.0"
     inkscape:pageopacity="0.0"
     inkscape:pageshadow="2"
     inkscape:zoom="1.5269034"
     inkscape:cx="165.56711"
     inkscape:cy="293.32237"
     inkscape:document-units="px"
     inkscape:current-layer="layer1"
     showgrid="false"
     inkscape:window-width="1920"
     inkscape:window-height="1134"
     inkscape:window-x="1920"
     inkscape:window-y="27"
     inkscape:window-maximized="1"
     units="in"
     showguides="true"
     inkscape:guide-bbox="true"
     inkscape:snap-global="true"
     inkscape:snap-object-midpoints="true" />
  <metadata
     id="metadata7">
    <rdf:RDF>
      <cc:Work
         rdf:about="">
        <dc:format>image/svg+xml</dc:format>
        <dc:type
           rdf:resource="http://purl.org/dc/dcmitype/StillImage" />
        <dc:title />
      </cc:Work>
    </rdf:RDF>
  </metadata>
  <g
     inkscape:label="Layer 1"
     inkscape:groupmode="layer"
     id="layer1"
     transform="translate(0,-512.35975)">
    <rect
       style="fill:#832753;fill-opacity:1;stroke:#000000;stroke-width:1.51292491;stroke-linecap:square;stroke-linejoin:round;stroke-miterlimit:4;stroke-opacity:1;stroke-dasharray:none"
       id="rect3050"
       width="424.19385"
       height="527.85736"
       x="61.72097"
       y="519.14929"
       ry="16.95413"
       inkscape:export-filename="/tmp/poop.png"
       inkscape:export-xdpi="6.3993473"
       inkscape:export-ydpi="6.3993473" />
    <path
       sodipodi:type="arc"
       style="fill:#c6bbc3;fill-opacity:1;stroke:#000000;stroke-width:1;stroke-linecap:square;stroke-linejoin:round;stroke-miterlimit:4;stroke-opacity:1;stroke-dasharray:none"
       id="path3103"
       sodipodi:cx="423.68771"
       sodipodi:cy="309.93692"
       sodipodi:rx="16.411961"
       sodipodi:ry="16.411961"
       d="m 440.09967,309.93692 a 16.411961,16.411961 0 1 1 -32.82392,0 16.411961,16.411961 0 1 1 32.82392,0 z"
       transform="matrix(1.5394544,0,0,1.4868525,-201.57178,97.49075)"
       inkscape:export-filename="/tmp/poop.png"
       inkscape:export-xdpi="6.3993473"
       inkscape:export-ydpi="6.3993473" />
    <path
       sodipodi:type="arc"
       style="fill:#fbece7;fill-opacity:1;stroke:#000000;stroke-width:1;stroke-linecap:square;stroke-linejoin:round;stroke-miterlimit:4;stroke-opacity:1;stroke-dasharray:none"
       id="path3107"
       sodipodi:cx="310.09967"
       sodipodi:cy="570.80072"
       sodipodi:rx="9.5016613"
       sodipodi:ry="9.5016613"
       d="m 319.60133,570.80072 a 9.5016613,9.5016613 0 1 1 -19.00332,0 9.5016613,9.5016613 0 1 1 19.00332,0 z"
       transform="matrix(1.5394544,0,0,1.4868525,-201.57178,97.49075)"
       inkscape:export-filename="/tmp/poop.png"
       inkscape:export-xdpi="6.3993473"
       inkscape:export-ydpi="6.3993473" />
    <path
       style="fill:none;stroke:#000000;stroke-width:1.51292491px;stroke-linecap:butt;stroke-linejoin:miter;stroke-opacity:1"
       d="m 261.98787,942.48563 c 27.97342,6.35708 27.97342,6.24356 27.97342,6.24356 l 0,0"
       id="path3120"
       inkscape:connector-curvature="0"
       inkscape:export-filename="/tmp/poop.png"
       inkscape:export-xdpi="6.3993473"
       inkscape:export-ydpi="6.3993473" />
    <g
       id="g5466"
       style="opacity:0.92000002"
       transform="matrix(0.69207729,0,0,0.66842955,2.335044,493.34153)"
       inkscape:export-filename="/tmp/poop.png"
       inkscape:export-xdpi="6.3993473"
       inkscape:export-ydpi="6.3993473">
      <path
         transform="matrix(2.2243967,0,0,2.2243967,-298.63015,-592.21018)"
         d="m 437.07642,419.20602 c 0,69.65026 -56.46269,126.11296 -126.11295,126.11296 -69.65026,0 -126.11295,-56.4627 -126.11295,-126.11296 0,-69.65026 56.46269,-126.11295 126.11295,-126.11295 69.65026,0 126.11295,56.46269 126.11295,126.11295 z"
         sodipodi:ry="126.11295"
         sodipodi:rx="126.11295"
         sodipodi:cy="419.20602"
         sodipodi:cx="310.96347"
         id="path3101"
         style="fill:#c6bbc3;fill-opacity:1;stroke:#000000;stroke-width:1;stroke-linecap:square;stroke-linejoin:round;stroke-miterlimit:4;stroke-opacity:1;stroke-dasharray:none"
         sodipodi:type="arc" />
      <path
         transform="matrix(2.2243967,0,0,2.2243967,-298.63015,-592.21018)"
         d="m 368.9171,417.75146 c 0,32.04635 -25.9787,58.02504 -58.02504,58.02504 -32.04635,0 -58.02504,-25.97869 -58.02504,-58.02504 0,-32.04634 25.97869,-58.02503 58.02504,-58.02503 32.04634,0 58.02504,25.97869 58.02504,58.02503 z"
         sodipodi:ry="58.02504"
         sodipodi:rx="58.02504"
         sodipodi:cy="417.75146"
         sodipodi:cx="310.89206"
         id="path3071"
         style="fill:#e3e6e3;fill-opacity:1;stroke:#000000;stroke-width:1;stroke-linecap:square;stroke-linejoin:round;stroke-miterlimit:4;stroke-opacity:1;stroke-dasharray:none"
         sodipodi:type="arc" />
      <path
         transform="matrix(2.2243967,0,0,2.2243967,-298.63015,-592.21018)"
         d="m 322.49707,418.97305 c 0,6.40927 -5.19574,11.60501 -11.60501,11.60501 -6.40927,0 -11.60501,-5.19574 -11.60501,-11.60501 0,-6.40927 5.19574,-11.60501 11.60501,-11.60501 6.40927,0 11.60501,5.19574 11.60501,11.60501 z"
         sodipodi:ry="11.605008"
         sodipodi:rx="11.605008"
         sodipodi:cy="418.97305"
         sodipodi:cx="310.89206"
         id="path3069"
         style="fill:#000000;fill-opacity:1;stroke:#000000;stroke-width:1;stroke-linecap:square;stroke-linejoin:round;stroke-miterlimit:4;stroke-opacity:1;stroke-dasharray:none"
         sodipodi:type="arc" />
      <path
         sodipodi:nodetypes="ccccc"
         inkscape:connector-curvature="0"
         id="path3105"
         d="m 558.07667,113.90473 c -70.4012,46.11368 -99.51328,57.29334 -179.93076,94.64276 30.45808,-3.68558 57.43681,6.3836 70.82563,12.26602 61.2776,-31.65197 84.23675,-53.20286 135.28427,-86.13358 -7.67032,-7.1158 -17.45275,-16.25189 -26.17914,-20.7752 z"
         style="fill:#342540;fill-opacity:1;stroke:#000000;stroke-width:2.22439671px;stroke-linecap:butt;stroke-linejoin:miter;stroke-opacity:1" />
      <path
         sodipodi:nodetypes="ccccc"
         inkscape:connector-curvature="0"
         id="path3122"
         d="m 287.62262,261.96998 c -43.46485,68.3108 -84.84779,142.78923 -146.05371,203.11656 4.69875,9.51092 -0.86661,-1.27282 4.75525,9.85014 46.43348,-62.65534 93.26034,-120.5401 127.03273,-186.81289 2.56923,-6.96912 7.16881,-15.56254 14.26573,-26.15381 z"
         style="fill:#695c6e;fill-opacity:1;stroke:#000000;stroke-width:2.22439671px;stroke-linecap:butt;stroke-linejoin:miter;stroke-opacity:1" />
    </g>
  </g>
</svg>
